# xmcd
#
# Track frame offsets: 
#        150
#        25447
#        56617
#        82232
#        112652
#
# Disc length: 1776 seconds
#
# Revision: 2
# Processed by: cddbd v1.5.2PL0 Copyright (c) Steve Scherf et al.
# Submitted via: ExactAudioCopy v1.0b1
#
DISCID=3906ee05
DTITLE=THE BOOM - REMIX MAN
DYEAR=1993
DGENRE=Rock
TTITLE0=いいあんべえ (New Jack Mix) Mixed by Bally Sagoo
TTITLE1=18時 (On The Brick Of Nature) Mixed by Mad Professor
TTITLE2=いいあんべえ (The Boombay Mix) Mixed by Bally Sagoo
TTITLE3=18時 (EBB Tide) Mixed by Mad Professor
TTITLE4=いいあんべえ (Gado Gado Mix) Mixed by Wiwied S.
EXTD=
EXTT0=
EXTT1=
EXTT2=
EXTT3=
EXTT4=
PLAYORDER=
